<svg width="160" height="170" viewBox="0 0 160 170" fill="none" xmlns="http://www.w3.org/2000/svg">
<path d="M53.254 23.9294V27.5141C53.254 28.1769 54.154 28.7153 55.262 28.7153H59.25C59.7819 28.7147 60.2916 28.5878 60.6673 28.3626C61.043 28.1374 61.254 27.8322 61.254 27.5141V23.9294C61.254 21.6346 64.458 18.4903 69.254 17.2794V12.2423C59.99 13.5249 53.254 19.0718 53.254 23.9294ZM101.514 1.67745L91.394 6.21926C90.006 6.84142 88.318 7.17883 86.582 7.17883H77.274C75.054 7.17883 73.254 8.25565 73.254 9.58374V19.134C73.254 20.4597 75.054 21.5365 77.274 21.5365H86.582C88.318 21.5365 90.006 21.8739 91.394 22.4961L101.518 27.0379C103.943 28.1267 106.894 28.7153 109.926 28.7153H114V0H109.926C106.894 0 103.942 0.588664 101.514 1.67745ZM116.667 2.74563V5.13875V7.17883H128.667L130 2.74563H116.667ZM116.667 26.6752H130L128.667 22.4961H116.667V26.6752Z" fill="#3B8D95"/>
<path d="M127.184 53.8949H113.152L109.252 43.7847C105.245 33.3902 95.6797 26.6752 84.882 26.6752H55.1164C44.3211 26.6752 34.7539 33.3902 30.7437 43.7847L26.8437 53.8949H12.814C10.9835 53.8949 9.64055 55.6788 10.0859 57.5185L11.4921 63.3513C11.8038 64.6491 12.9288 65.5605 14.2202 65.5605H18.9242C15.7765 68.4113 13.7492 72.555 13.7492 77.2261V88.8917C13.7492 92.8094 15.1929 96.3455 17.4992 99.0821V112.223C17.4992 116.517 20.8578 120 24.9992 120H32.4992C36.6406 120 39.9992 116.517 39.9992 112.223V104.446H99.9993V112.223C99.9993 116.517 103.358 120 107.499 120H114.999C119.141 120 122.499 116.517 122.499 112.223V99.0821C124.806 96.348 126.249 92.8118 126.249 88.8917V77.2261C126.249 72.555 124.222 68.4113 121.077 65.5605H125.781C127.072 65.5605 128.197 64.6491 128.509 63.3513L129.915 57.5185C130.358 55.6788 129.015 53.8949 127.184 53.8949ZM44.6703 49.5616C46.3789 45.1336 50.5156 42.2293 55.1164 42.2293H84.882C89.4828 42.2293 93.6196 45.1336 95.3282 49.5616L99.9993 61.672H39.9992L44.6703 49.5616ZM32.4992 88.8431C27.9992 88.8431 24.9992 85.742 24.9992 81.0903C24.9992 76.4387 27.9992 73.3376 32.4992 73.3376C36.9992 73.3376 43.7492 80.3151 43.7492 84.9667C43.7492 89.6184 36.9992 88.8431 32.4992 88.8431ZM107.499 88.8431C102.999 88.8431 96.2493 89.6184 96.2493 84.9667C96.2493 80.3151 102.999 73.3376 107.499 73.3376C111.999 73.3376 114.999 76.4387 114.999 81.0903C114.999 85.742 111.999 88.8431 107.499 88.8431Z" fill="#3B8D95"/>
<path d="M32.4992 88.8431C27.9992 88.8431 24.9992 85.742 24.9992 81.0903C24.9992 76.4387 27.9992 73.3376 32.4992 73.3376C36.9992 73.3376 43.7492 80.3151 43.7492 84.9667C43.7492 89.6184 36.9992 88.8431 32.4992 88.8431Z" fill="#EDD144"/>
<path d="M107.499 88.8431C102.999 88.8431 96.2493 89.6184 96.2493 84.9667C96.2493 80.3151 102.999 73.3376 107.499 73.3376C111.999 73.3376 114.999 76.4387 114.999 81.0903C114.999 85.742 111.999 88.8431 107.499 88.8431Z" fill="#EDD144"/>
<path d="M116.667 12.3176H127.333V16.5053H116.667V12.3176Z" fill="#3B8D95"/>
<path d="M6.54688 144.953V152.984H14.0625L15.3594 149.969L16.9844 150.328L16.6094 155H1.5L1.1875 153.469L3.57812 152.938V135.922L1.1875 135.391L1.5 133.859H16.1406L16.5156 138.547L14.9062 138.891L13.6094 135.875H6.54688V142.938H12.125L12.6562 141.031L14.2031 141.344V146.562L12.6562 146.875L12.125 144.953H6.54688ZM22.1719 135.922L19.7812 135.391L20.0938 133.859H27.2031L27.5156 135.391L25.1406 135.922V152.984H30.3906L31.6875 149.969L33.3125 150.312L32.9219 155H20.0938L19.7812 153.469L22.1719 152.938V135.922ZM41.0781 144.953V152.984H48.5938L49.8906 149.969L51.5156 150.328L51.1406 155H36.0312L35.7188 153.469L38.1094 152.938V135.922L35.7188 135.391L36.0312 133.859H50.6719L51.0469 138.547L49.4375 138.891L48.1406 135.875H41.0781V142.938H46.6562L47.1875 141.031L48.7344 141.344V146.562L47.1875 146.875L46.6562 144.953H41.0781ZM54.7188 145.562C54.7188 141.594 55.5208 138.594 57.125 136.562C58.7292 134.531 61.0781 133.516 64.1719 133.516C65.1615 133.516 66.1615 133.594 67.1719 133.75C68.1823 133.906 69.0729 134.135 69.8438 134.438L70.1719 138.656L68.5312 139L67.2344 135.953C66.8385 135.828 66.3333 135.729 65.7188 135.656C65.1042 135.573 64.4479 135.531 63.75 135.531C62.8542 135.531 62 135.651 61.1875 135.891C60.3854 136.13 59.6823 136.469 59.0781 136.906C58.6615 137.865 58.3229 139.01 58.0625 140.344C57.8125 141.677 57.6875 143.005 57.6875 144.328V146.406C57.6875 148.635 58.2969 150.349 59.5156 151.547C60.7448 152.734 62.3906 153.328 64.4531 153.328C65.4323 153.328 66.4323 153.177 67.4531 152.875C68.4844 152.562 69.4062 152.172 70.2188 151.703V153.359C69.25 153.984 68.1771 154.474 67 154.828C65.8229 155.172 64.6615 155.344 63.5156 155.344C60.6198 155.344 58.4271 154.646 56.9375 153.25C55.4583 151.854 54.7188 149.755 54.7188 146.953V145.562ZM78.9531 135.875H74.2656L73.2969 138.531L71.75 138.391L71.9844 133.859H88.8906L89.1094 138.391L87.5781 138.531L86.5938 135.875H81.9219V152.938L84.3125 153.469L84 155H76.875L76.5625 153.469L78.9531 152.938V135.875ZM92.8594 135.922L90.4688 135.391L90.7812 133.859H98.4688C100.635 133.859 102.292 134.302 103.438 135.188C104.583 136.062 105.156 137.406 105.156 139.219C105.156 140.573 104.844 141.755 104.219 142.766C103.604 143.766 102.76 144.516 101.688 145.016L101.594 145.312L105.922 152.938L108.203 153.469L107.891 155H104L98.6875 145.609H95.8281V152.938L98.2031 153.469L97.8906 155H90.7812L90.4688 153.469L92.8594 152.938V135.922ZM95.8281 135.875V143.594H97.75C98.3958 143.594 99.0469 143.547 99.7031 143.453C100.37 143.359 101.026 143.203 101.672 142.984C101.786 142.516 101.891 142.005 101.984 141.453C102.078 140.901 102.125 140.37 102.125 139.859C102.125 138.62 101.724 137.646 100.922 136.938C100.13 136.229 98.9583 135.875 97.4062 135.875H95.8281ZM111.703 135.922L109.312 135.391L109.625 133.859H116.734L117.047 135.391L114.672 135.922V152.938L117.047 153.469L116.734 155H109.625L109.312 153.469L111.703 152.938V135.922ZM124.734 144.953V152.938L127.891 153.469L127.578 155H119.688L119.375 153.469L121.766 152.938V135.922L119.375 135.391L119.688 133.859H133.391L133.766 138.547L132.156 138.891L130.859 135.875H124.734V142.938H129.734L130.266 141.031L131.797 141.344V146.562L130.266 146.875L129.734 144.953H124.734ZM142.031 145.969L135.531 135.844L133.75 135.406L134.062 133.859H140.469L140.781 135.406L138.719 135.844L143.734 143.719H143.984L148.734 135.844L146.781 135.406L147.094 133.859H152.594L152.906 135.406L151.172 135.844L145 146V152.938L147.375 153.469L147.062 155H139.953L139.641 153.469L142.031 152.938V145.969Z" fill="black"/>
</svg>
