<svg width="60" height="60" viewBox="0 0 60 60" fill="none" xmlns="http://www.w3.org/2000/svg">
<path d="M21.627 11.9647V13.757C21.627 14.0885 22.077 14.3577 22.631 14.3577H24.625C24.8909 14.3573 25.1457 14.2939 25.3336 14.1813C25.5215 14.0687 25.627 13.9161 25.627 13.757V11.9647C25.627 10.8173 27.229 9.24513 29.627 8.63972V6.12115C24.995 6.76246 21.627 9.53588 21.627 11.9647ZM45.757 0.838727L40.697 3.10963C40.003 3.42071 39.159 3.58941 38.291 3.58941H33.637C32.527 3.58941 31.627 4.12783 31.627 4.79187V9.56699C31.627 10.2298 32.527 10.7682 33.637 10.7682H38.291C39.159 10.7682 40.003 10.9369 40.697 11.248L45.759 13.5189C46.9716 14.0633 48.4468 14.3577 49.963 14.3577H51.9999V0H49.963C48.447 0 46.971 0.294332 45.757 0.838727ZM53.3333 1.37281V2.56938V3.58941H59.3333L59.9999 1.37281H53.3333ZM53.3333 13.3376H59.9999L59.3333 11.248H53.3333V13.3376Z" fill="#3B8D95"/>
<path d="M58.5922 26.9475H51.5762L49.6262 21.8924C47.6223 16.6952 42.8399 13.3376 37.441 13.3376H22.5582C17.1605 13.3376 12.3769 16.6952 10.3719 21.8924L8.42185 26.9475H1.407C0.491762 26.9475 -0.179723 27.8394 0.0429332 28.7593L0.746059 31.6757C0.901919 32.3246 1.46442 32.7803 2.11012 32.7803H4.46208C2.88825 34.2057 1.87458 36.2776 1.87458 38.6131V44.4459C1.87458 46.4048 2.59645 48.1728 3.74958 49.5411V56.1115C3.74958 58.2587 5.42888 60 7.49958 60H11.2496C13.3203 60 14.9996 58.2587 14.9996 56.1115V52.223H44.9996V56.1115C44.9996 58.2587 46.6789 60 48.7496 60H52.4996C54.5703 60 56.2496 58.2587 56.2496 56.1115V49.5411C57.4028 48.174 58.1246 46.406 58.1246 44.4459V38.6131C58.1246 36.2776 57.111 34.2057 55.5383 32.7803H57.8903C58.536 32.7803 59.0985 32.3246 59.2543 31.6757L59.9575 28.7593C60.1789 27.8394 59.5075 26.9475 58.5922 26.9475ZM17.3351 24.7809C18.1894 22.5668 20.2578 21.1147 22.5582 21.1147H37.441C39.7414 21.1147 41.8098 22.5668 42.6641 24.7809L44.9996 30.836H14.9996L17.3351 24.7809ZM11.2496 44.4216C8.99958 44.4216 7.49958 42.871 7.49958 40.5452C7.49958 38.2194 8.99958 36.6688 11.2496 36.6688C13.4996 36.6688 16.8746 40.1576 16.8746 42.4834C16.8746 44.8092 13.4996 44.4216 11.2496 44.4216ZM48.7496 44.4216C46.4996 44.4216 43.1246 44.8092 43.1246 42.4834C43.1246 40.1576 46.4996 36.6688 48.7496 36.6688C50.9996 36.6688 52.4996 38.2194 52.4996 40.5452C52.4996 42.871 50.9996 44.4216 48.7496 44.4216Z" fill="#3B8D95"/>
<path d="M11.2496 44.4216C8.99958 44.4216 7.49958 42.871 7.49958 40.5452C7.49958 38.2194 8.99958 36.6688 11.2496 36.6688C13.4996 36.6688 16.8746 40.1576 16.8746 42.4834C16.8746 44.8092 13.4996 44.4216 11.2496 44.4216Z" fill="#EDD144"/>
<path d="M48.7496 44.4216C46.4996 44.4216 43.1246 44.8092 43.1246 42.4834C43.1246 40.1576 46.4996 36.6688 48.7496 36.6688C50.9996 36.6688 52.4996 38.2194 52.4996 40.5452C52.4996 42.871 50.9996 44.4216 48.7496 44.4216Z" fill="#EDD144"/>
<path d="M53.3334 6.15881H58.6667V8.25264H53.3334V6.15881Z" fill="#3B8D95"/>
</svg>
